<mxfile host="app.diagrams.net" modified="2021-11-08T03:44:27.440Z" agent="5.0 (Windows NT 10.0; Win64; x64) AppleWebKit/537.36 (KHTML, like Gecko) Chrome/95.0.4638.69 Safari/537.36 Edg/95.0.1020.44" etag="nCpS07AcrgDL49qFMzEG" version="15.7.0" type="github">
  <diagram id="82GvMDjcmci_KWEyFggU" name="Page-1">
    <mxGraphModel dx="1422" dy="786" grid="1" gridSize="10" guides="1" tooltips="1" connect="1" arrows="1" fold="1" page="1" pageScale="1" pageWidth="827" pageHeight="1169" math="0" shadow="0">
      <root>
        <mxCell id="0" />
        <mxCell id="1" parent="0" />
        <mxCell id="0IHWs067w9paQ9kfYj9g-1" value="" style="ellipse;whiteSpace=wrap;html=1;aspect=fixed;fillColor=none;" vertex="1" parent="1">
          <mxGeometry x="239" y="190" width="350" height="350" as="geometry" />
        </mxCell>
      </root>
    </mxGraphModel>
  </diagram>
</mxfile>
